<?xml version="1.0" standalone="no"?>
<svg viewBox="0 0 200 200" xmlns="http://www.w3.org/2000/svg">
  <path fill="#709FB0" d="M22.7,-40.5C27,-36.9,26.2,-25.8,35.7,-17.8C45.1,-9.8,64.7,-4.9,67.3,1.5C70,8,55.8,16,45.7,22.9C35.7,29.9,29.9,35.9,23,40.9C16.1,45.9,8.1,50,0.8,48.6C-6.4,47.2,-12.9,40.3,-19.5,35.1C-26.1,29.9,-32.9,26.4,-36,20.9C-39.2,15.3,-38.6,7.6,-41.1,-1.4C-43.5,-10.5,-49,-20.9,-45.2,-25.4C-41.4,-29.8,-28.3,-28.1,-19.3,-29C-10.2,-29.8,-5.1,-33.2,2.1,-36.8C9.2,-40.4,18.5,-44.2,22.7,-40.5Z" transform="translate(100 100)" />
</svg>
