<?xml version="1.0" standalone="no"?><svg xmlns="http://www.w3.org/2000/svg" viewBox="0 0 1440 320"><path fill="#413c69" fill-opacity="1" d="M0,160L30,154.7C60,149,120,139,180,160C240,181,300,235,360,218.7C420,203,480,117,540,112C600,107,660,181,720,192C780,203,840,149,900,160C960,171,1020,245,1080,234.7C1140,224,1200,128,1260,128C1320,128,1380,224,1410,272L1440,320L1440,0L1410,0C1380,0,1320,0,1260,0C1200,0,1140,0,1080,0C1020,0,960,0,900,0C840,0,780,0,720,0C660,0,600,0,540,0C480,0,420,0,360,0C300,0,240,0,180,0C120,0,60,0,30,0L0,0Z"></path></svg>